<?xml version="1.0" standalone="no"?>
<!DOCTYPE svg PUBLIC "-//W3C//DTD SVG 20010904//EN"
 "http://www.w3.org/TR/2001/REC-SVG-20010904/DTD/svg10.dtd">
<svg version="1.0" xmlns="http://www.w3.org/2000/svg"
 width="16.000000pt" height="16.000000pt" viewBox="0 0 16.000000 16.000000"
 preserveAspectRatio="xMidYMid meet">

<g transform="translate(0.000000,16.000000) scale(0.100000,-0.100000)"
fill="#000000" stroke="none">
<path d="M4 127 c-3 -8 -4 -34 -2 -58 l3 -44 75 0 75 0 0 55 0 55 -73 3 c-55
2 -74 0 -78 -11z m146 -47 l0 -30 -72 1 c-51 1 -63 4 -40 8 31 6 32 7 18 26
-16 20 -16 20 -31 1 -15 -19 -15 -19 -15 2 0 21 5 22 70 22 l70 0 0 -30z"/>
</g>
</svg>
